<svg viewBox="0 0 800 500" preserveAspectRatio="none" class="jsx-e2e8435e2faafabc absolute inset-0 w-full h-full opacity-15"><path d="M0,100 Q200,20 400,100 T800,100" stroke="#7e22ce" stroke-width="2" fill="none" opacity="0.8" class="jsx-e2e8435e2faafabc"></path><path d="M0,130 Q200,50 400,130 T800,130" stroke="#7e22ce" stroke-width="2" fill="none" opacity="0.6" class="jsx-e2e8435e2faafabc"></path><path d="M0,160 Q200,80 400,160 T800,160" stroke="#7e22ce" stroke-width="2" fill="none" opacity="0.4" class="jsx-e2e8435e2faafabc"></path><path d="M0,190 Q200,110 400,190 T800,190" stroke="#7e22ce" stroke-width="2" fill="none" opacity="0.3" class="jsx-e2e8435e2faafabc"></path><path d="M0,220 Q200,140 400,220 T800,220" stroke="#7e22ce" stroke-width="2" fill="none" opacity="0.2" class="jsx-e2e8435e2faafabc"></path><path d="M0,250 Q200,170 400,250 T800,250" stroke="#7e22ce" stroke-width="1" fill="none" opacity="0.2" class="jsx-e2e8435e2faafabc"></path><path d="M0,280 Q200,200 400,280 T800,280" stroke="#7e22ce" stroke-width="1" fill="none" opacity="0.1" class="jsx-e2e8435e2faafabc"></path><path d="M800,320 Q600,240 400,320 T0,320" stroke="#7e22ce" stroke-width="2" fill="none" opacity="0.6" class="jsx-e2e8435e2faafabc"></path><path d="M800,350 Q600,270 400,350 T0,350" stroke="#7e22ce" stroke-width="2" fill="none" opacity="0.4" class="jsx-e2e8435e2faafabc"></path><path d="M800,380 Q600,300 400,380 T0,380" stroke="#7e22ce" stroke-width="1" fill="none" opacity="0.3" class="jsx-e2e8435e2faafabc"></path></svg>